<?xml version="1.0" standalone="no"?><!DOCTYPE svg PUBLIC "-//W3C//DTD SVG 1.1//EN" "http://www.w3.org/Graphics/SVG/1.1/DTD/svg11.dtd"><svg t="1553071536334" class="icon" style="" viewBox="0 0 1024 1024" version="1.1" xmlns="http://www.w3.org/2000/svg" p-id="2542" xmlns:xlink="http://www.w3.org/1999/xlink" width="200" height="200"><defs><style type="text/css"></style></defs><path d="M810.666667 170.666667h-85.333334a42.666667 42.666667 0 0 0 0 85.333333h42.666667v512h-42.666667a42.666667 42.666667 0 0 0 0 85.333333h85.333334a42.666667 42.666667 0 0 0 42.666666-42.666666V213.333333a42.666667 42.666667 0 0 0-42.666666-42.666666zM503.466667 315.733333a42.666667 42.666667 0 0 0-68.266667 51.2L512 469.333333H170.666667a42.666667 42.666667 0 0 0 0 85.333334h345.173333l-73.386667 104.106666a42.666667 42.666667 0 0 0 10.24 59.733334 42.666667 42.666667 0 0 0 24.746667 7.68 42.666667 42.666667 0 0 0 34.56-17.92l120.32-170.666667a42.666667 42.666667 0 0 0 0-50.346667z" p-id="2543"></path></svg>